<svg xmlns="http://www.w3.org/2000/svg" viewBox="0 0 64 64" fill="none">
  <defs>
    <filter id="settingsShadow" x="-35%" y="-35%" width="170%" height="170%">
      <feDropShadow dx="0" dy="2" stdDeviation="2.4" flood-color="#ffffff" flood-opacity=".3"/>
    </filter>
  </defs>
  <path d="M26.5 7h11l1.7 7a20 20 0 0 1 4.7 2.7l6.8-2.1 5.5 9.5-5.1 4.9a20.5 20.5 0 0 1 0 6l5.1 4.9-5.5 9.5-6.8-2.1a20 20 0 0 1-4.7 2.7l-1.7 7h-11l-1.7-7a20 20 0 0 1-4.7-2.7l-6.8 2.1-5.5-9.5 5.1-4.9a20.5 20.5 0 0 1 0-6l-5.1-4.9 5.5-9.5 6.8 2.1a20 20 0 0 1 4.7-2.7l1.7-7Z"
        stroke="#fff" stroke-width="4.5" stroke-linecap="round" stroke-linejoin="round" filter="url(#settingsShadow)"/>
  <circle cx="32" cy="32" r="9" stroke="#fff" stroke-width="4.5" filter="url(#settingsShadow)"/>
</svg>
